<svg width="237" height="95" viewBox="0 0 237 95" fill="none" xmlns="http://www.w3.org/2000/svg">
<path d="M120.688 30.7656H123.688C123.531 32.2031 123.12 33.4896 122.453 34.625C121.786 35.7604 120.844 36.6615 119.625 37.3281C118.406 37.9844 116.885 38.3125 115.062 38.3125C113.729 38.3125 112.516 38.0625 111.422 37.5625C110.339 37.0625 109.406 36.3542 108.625 35.4375C107.844 34.5104 107.24 33.401 106.812 32.1094C106.396 30.8073 106.188 29.3594 106.188 27.7656V25.5C106.188 23.9062 106.396 22.4635 106.812 21.1719C107.24 19.8698 107.849 18.7552 108.641 17.8281C109.443 16.901 110.406 16.1875 111.531 15.6875C112.656 15.1875 113.922 14.9375 115.328 14.9375C117.047 14.9375 118.5 15.2604 119.688 15.9062C120.875 16.5521 121.797 17.4479 122.453 18.5938C123.12 19.7292 123.531 21.0469 123.688 22.5469H120.688C120.542 21.4844 120.271 20.5729 119.875 19.8125C119.479 19.0417 118.917 18.4479 118.188 18.0312C117.458 17.6146 116.505 17.4062 115.328 17.4062C114.318 17.4062 113.427 17.599 112.656 17.9844C111.896 18.3698 111.255 18.9167 110.734 19.625C110.224 20.3333 109.839 21.1823 109.578 22.1719C109.318 23.1615 109.188 24.2604 109.188 25.4688V27.7656C109.188 28.8802 109.302 29.9271 109.531 30.9062C109.771 31.8854 110.13 32.7448 110.609 33.4844C111.089 34.224 111.698 34.8073 112.438 35.2344C113.177 35.651 114.052 35.8594 115.062 35.8594C116.344 35.8594 117.365 35.6562 118.125 35.25C118.885 34.8438 119.458 34.2604 119.844 33.5C120.24 32.7396 120.521 31.8281 120.688 30.7656ZM142.25 35.5469V38H130.203V35.5469H142.25ZM130.812 15.25V38H127.797V15.25H130.812ZM140.656 25.0312V27.4844H130.203V25.0312H140.656ZM142.094 15.25V17.7188H130.203V15.25H142.094ZM163.359 15.25V38H160.359V17.7188H149.141V38H146.125V15.25H163.359ZM177.234 15.25V38H174.266V15.25H177.234ZM184.547 15.25V17.7188H166.969V15.25H184.547ZM191.062 32.7812L202.266 15.25H205.281V38H202.266V20.4531L191.062 38H188.062V15.25H191.062V32.7812ZM213.922 15.25V38H210.906V15.25H213.922ZM227.938 15.25L218.062 27.7656H212.719L212.25 25.2656H216.266L224.203 15.25H227.938ZM224.906 38L216.359 27.375L218.047 24.7344L228.594 38H224.906ZM108.516 61.2344V59.3438C108.516 58.7083 108.62 58.0469 108.828 57.3594C109.047 56.6615 109.359 55.9948 109.766 55.3594C110.172 54.7135 110.661 54.1562 111.234 53.6875L112.875 54.8281C112.396 55.5156 112.026 56.224 111.766 56.9531C111.505 57.6719 111.375 58.4531 111.375 59.2969V61.2344H108.516ZM113.438 61.2344V59.3438C113.438 58.7083 113.542 58.0469 113.75 57.3594C113.969 56.6615 114.281 55.9948 114.688 55.3594C115.094 54.7135 115.583 54.1562 116.156 53.6875L117.797 54.8281C117.318 55.5156 116.948 56.224 116.688 56.9531C116.427 57.6719 116.297 58.4531 116.297 59.2969V61.2344H113.438ZM129.234 55.25V78H126.266V55.25H129.234ZM136.547 55.25V57.7188H118.969V55.25H136.547ZM148.031 67.3594H142.266L142.234 64.9375H147.469C148.333 64.9375 149.089 64.7917 149.734 64.5C150.38 64.2083 150.88 63.7917 151.234 63.25C151.599 62.6979 151.781 62.0417 151.781 61.2812C151.781 60.4479 151.62 59.7708 151.297 59.25C150.984 58.7188 150.5 58.3333 149.844 58.0938C149.198 57.8438 148.375 57.7188 147.375 57.7188H142.938V78H139.922V55.25H147.375C148.542 55.25 149.583 55.3698 150.5 55.6094C151.417 55.8385 152.193 56.2031 152.828 56.7031C153.474 57.1927 153.964 57.8177 154.297 58.5781C154.63 59.3385 154.797 60.25 154.797 61.3125C154.797 62.25 154.557 63.099 154.078 63.8594C153.599 64.6094 152.932 65.224 152.078 65.7031C151.234 66.1823 150.245 66.4896 149.109 66.625L148.031 67.3594ZM147.891 78H141.078L142.781 75.5469H147.891C148.849 75.5469 149.661 75.3802 150.328 75.0469C151.005 74.7135 151.521 74.2448 151.875 73.6406C152.229 73.026 152.406 72.3021 152.406 71.4688C152.406 70.625 152.255 69.8958 151.953 69.2812C151.651 68.6667 151.177 68.1927 150.531 67.8594C149.885 67.526 149.052 67.3594 148.031 67.3594H143.734L143.766 64.9375H149.641L150.281 65.8125C151.375 65.9062 152.302 66.2188 153.062 66.75C153.823 67.2708 154.401 67.9375 154.797 68.75C155.203 69.5625 155.406 70.4583 155.406 71.4375C155.406 72.8542 155.094 74.0521 154.469 75.0312C153.854 76 152.984 76.7396 151.859 77.25C150.734 77.75 149.411 78 147.891 78ZM174.312 75.5469V78H162.266V75.5469H174.312ZM162.875 55.25V78H159.859V55.25H162.875ZM172.719 65.0312V67.4844H162.266V65.0312H172.719ZM174.156 55.25V57.7188H162.266V55.25H174.156ZM186.438 69.0781H180.359V66.625H186.438C187.615 66.625 188.568 66.4375 189.297 66.0625C190.026 65.6875 190.557 65.1667 190.891 64.5C191.234 63.8333 191.406 63.0729 191.406 62.2188C191.406 61.4375 191.234 60.7031 190.891 60.0156C190.557 59.3281 190.026 58.776 189.297 58.3594C188.568 57.9323 187.615 57.7188 186.438 57.7188H181.062V78H178.047V55.25H186.438C188.156 55.25 189.609 55.5469 190.797 56.1406C191.984 56.7344 192.885 57.5573 193.5 58.6094C194.115 59.651 194.422 60.8438 194.422 62.1875C194.422 63.6458 194.115 64.8906 193.5 65.9219C192.885 66.9531 191.984 67.7396 190.797 68.2812C189.609 68.8125 188.156 69.0781 186.438 69.0781ZM200.438 64.5156H206.641C208.307 64.5156 209.714 64.7969 210.859 65.3594C212.005 65.9115 212.875 66.6875 213.469 67.6875C214.062 68.6875 214.359 69.8594 214.359 71.2031C214.359 72.2031 214.193 73.1198 213.859 73.9531C213.526 74.776 213.031 75.4948 212.375 76.1094C211.719 76.7135 210.911 77.1823 209.953 77.5156C208.995 77.8385 207.891 78 206.641 78H198.141V55.25H201.156V75.5469H206.641C207.755 75.5469 208.656 75.3438 209.344 74.9375C210.042 74.5208 210.552 73.9792 210.875 73.3125C211.198 72.6458 211.359 71.9323 211.359 71.1719C211.359 70.4115 211.198 69.7135 210.875 69.0781C210.552 68.4427 210.042 67.9375 209.344 67.5625C208.656 67.1771 207.755 66.9844 206.641 66.9844H200.438V64.5156ZM220 54V56C220 56.625 219.891 57.2865 219.672 57.9844C219.464 58.6719 219.156 59.3385 218.75 59.9844C218.344 60.6198 217.854 61.1771 217.281 61.6562L215.625 60.5156C216.115 59.8281 216.484 59.125 216.734 58.4062C216.995 57.6771 217.125 56.8906 217.125 56.0469V54H220ZM224.797 54V56C224.797 56.625 224.688 57.2865 224.469 57.9844C224.26 58.6719 223.953 59.3385 223.547 59.9844C223.141 60.6198 222.651 61.1771 222.078 61.6562L220.422 60.5156C220.911 59.8281 221.281 59.125 221.531 58.4062C221.792 57.6771 221.922 56.8906 221.922 56.0469V54H224.797Z" fill="#006D3C"/>
<rect width="95.8395" height="85" rx="6" fill="#006D3C"/>
<g clip-path="url(#clip0_370_998)">
<path d="M49.1008 51.2778C54.1734 51.2778 58.2856 47.1228 58.2856 41.9973C58.2856 36.8718 54.1734 32.7168 49.1008 32.7168C44.0282 32.7168 39.916 36.8718 39.916 41.9973C39.916 47.1228 44.0282 51.2778 49.1008 51.2778Z" stroke="white" stroke-width="5" stroke-miterlimit="10"/>
<path d="M53.9144 41.6659C53.6685 41.7984 53.6849 41.8757 53.2259 42.2787C53.0586 42.4421 52.8756 42.5882 52.6796 42.7149C52.3247 42.9055 51.9166 42.9697 51.5212 42.8971C51.3136 42.8474 51.2262 42.7811 50.4831 42.2014C49.6252 41.5334 49.5269 41.4506 49.3029 41.4064C48.8959 41.3443 48.4802 41.4283 48.1281 41.6438C47.8222 41.8315 47.8604 41.953 47.4014 42.3395C47.1656 42.5876 46.8756 42.7767 46.5545 42.8915C46.1894 42.9814 45.8051 42.9465 45.4618 42.7922C45.2092 42.6551 44.9773 42.4822 44.7733 42.2787C44.3253 41.8923 44.3089 41.7929 44.0466 41.6438C43.6259 41.4064 43.4456 41.5334 43.2871 41.3843C43.2371 41.6611 43.2133 41.9421 43.2161 42.2235C43.1922 43.0119 43.3253 43.7971 43.6074 44.5326C43.8895 45.268 44.3148 45.9388 44.8583 46.505C45.4018 47.0712 46.0523 47.5213 46.7712 47.8287C47.49 48.1362 48.2627 48.2946 49.0433 48.2946C49.824 48.2946 50.5966 48.1362 51.3155 47.8287C52.0344 47.5213 52.6849 47.0712 53.2284 46.505C53.7718 45.9388 54.1972 45.268 54.4793 44.5326C54.7614 43.7971 54.8945 43.0119 54.8706 42.2235C54.8709 41.9297 54.849 41.6362 54.805 41.3457L54.6192 41.4064C54.2204 41.5445 54.0291 41.6107 53.9144 41.6659Z" fill="white"/>
<path d="M42.8772 52.774C43.695 52.774 44.3579 52.1042 44.3579 51.2779C44.3579 50.4516 43.695 49.7817 42.8772 49.7817C42.0594 49.7817 41.3965 50.4516 41.3965 51.2779C41.3965 52.1042 42.0594 52.774 42.8772 52.774Z" fill="white"/>
<path d="M55.3899 52.774C56.2077 52.774 56.8706 52.1042 56.8706 51.2779C56.8706 50.4516 56.2077 49.7817 55.3899 49.7817C54.5721 49.7817 53.9092 50.4516 53.9092 51.2779C53.9092 52.1042 54.5721 52.774 55.3899 52.774Z" fill="white"/>
<path d="M67.5089 46.9165C68.4505 46.9153 69.3765 47.1601 70.197 47.6271C71.0175 48.094 71.7046 48.7674 72.1917 49.5817C72.6788 50.396 72.9493 51.3237 72.977 52.2748C73.0047 53.2259 72.7887 54.1681 72.3499 55.01C69.5924 60.2124 65.1953 64.3359 59.8554 66.7268C54.5156 69.1177 48.5388 69.6392 42.8724 68.2086C37.206 66.778 32.1743 63.4772 28.5751 58.8294C24.9758 54.1817 23.015 48.4529 23.0035 42.5515C22.9919 36.65 24.9303 30.9135 28.5113 26.2514C32.0923 21.5892 37.111 18.2683 42.7717 16.8151C48.4325 15.3618 54.4114 15.8594 59.7605 18.229C65.1096 20.5985 69.5229 24.7044 72.3007 29.8957C72.7599 30.7369 72.9939 31.6845 72.9797 32.645C72.9654 33.6055 72.7034 34.5457 72.2194 35.3725C71.7355 36.1994 71.0464 36.8843 70.2203 37.3597C69.3942 37.8351 68.4596 38.0845 67.5089 38.0831C66.5345 38.0916 65.5762 37.8326 64.7361 37.3338C63.896 36.835 63.2058 36.1151 62.7389 35.2509C61.1405 32.2058 58.5806 29.7877 55.4661 28.3812C52.3516 26.9746 48.8612 26.6602 45.5496 27.4879C42.238 28.3156 39.2952 30.238 37.1889 32.9495C35.0825 35.6609 33.9335 39.006 33.9245 42.4529C33.9154 45.8999 35.0468 49.251 37.1389 51.9738C39.2309 54.6965 42.1636 56.6346 45.4708 57.4801C48.778 58.3256 52.27 58.0299 55.3919 56.64C58.5137 55.2502 61.0862 52.846 62.7006 49.8094C63.1695 48.934 63.864 48.203 64.7104 47.6937C65.5568 47.1845 66.5237 46.9159 67.5089 46.9165Z" fill="white"/>
</g>
<defs>
<clipPath id="clip0_370_998">
<rect x="23" y="16" width="50" height="53" rx="6" fill="white"/>
</clipPath>
</defs>
</svg>
