<svg width="34" height="34" viewBox="0 0 34 34" fill="none" xmlns="http://www.w3.org/2000/svg">
<path d="M30.4178 22.2642H20.4399C21.8662 20.4269 23.1777 18.5032 24.367 16.5043C24.5656 16.1559 24.7642 15.7952 24.9471 15.4415C25.0133 15.3144 25.0796 15.1889 25.1423 15.0635H27.1894C27.7365 15.0664 28.2652 15.2615 28.683 15.6147C29.1009 15.9678 29.3813 16.4567 29.4752 16.9956L30.4178 22.2642Z" fill="#FBFDF8"/>
<path d="M32.6742 28.261L30.6201 16.7935C30.4779 15.9862 30.0564 15.2545 29.4293 14.7264C28.8022 14.1984 28.0094 13.9076 27.1896 13.9049H25.6895L25.6721 13.938C26.2331 12.6452 26.5763 11.4396 26.5763 10.4117C26.583 9.05741 26.2928 7.71814 25.7261 6.48813C25.7122 6.46026 25.6982 6.44632 25.6843 6.4167V6.40276C25.6381 6.31987 25.5703 6.25111 25.488 6.20385C25.4058 6.15658 25.3122 6.13259 25.2174 6.13445C25.0787 6.13445 24.9458 6.18952 24.8478 6.28754C24.7498 6.38556 24.6947 6.51851 24.6947 6.65713C24.6918 6.73635 24.7111 6.8148 24.7504 6.88362C25.259 7.98944 25.5206 9.19277 25.517 10.4099C25.517 11.7567 24.794 13.5704 23.7452 15.4398C23.5605 15.7883 23.3479 16.1489 23.1354 16.5026C21.6492 18.9818 19.7641 21.461 18.447 23.104C18.2344 23.3583 18.0358 23.6005 17.8668 23.8113C17.7642 23.9232 17.6394 24.0126 17.5004 24.0737C17.3613 24.1348 17.2111 24.1664 17.0593 24.1664C16.9074 24.1664 16.7572 24.1348 16.6182 24.0737C16.4792 24.0126 16.3544 23.9232 16.2518 23.8113C16.0775 23.6005 15.8824 23.3583 15.6698 23.104C14.8911 22.1126 13.8997 20.8234 12.9084 19.4209C12.539 18.9104 12.1853 18.386 11.8456 17.8528C11.5477 17.3998 11.2498 16.9469 10.9745 16.4939C10.7619 16.1454 10.5633 15.7848 10.3647 15.4311C9.33676 13.5721 8.59979 11.7584 8.59979 10.4117C8.59998 8.87256 9.02011 7.36267 9.81492 6.04466C10.6097 4.72665 11.7491 3.65048 13.1102 2.93208C14.4714 2.21367 16.0028 1.88027 17.5394 1.96779C19.076 2.05531 20.5596 2.56043 21.8304 3.42874C21.8461 3.42874 21.8461 3.44268 21.8601 3.45662C21.9597 3.53511 22.0818 3.57968 22.2085 3.5838C22.2792 3.5838 22.3492 3.56988 22.4145 3.54282C22.4798 3.51577 22.5392 3.47611 22.5892 3.42612C22.6392 3.37613 22.6788 3.31678 22.7059 3.25147C22.7329 3.18615 22.7469 3.11614 22.7469 3.04545C22.7474 2.96241 22.7289 2.88036 22.693 2.8055C22.6571 2.73063 22.6046 2.66493 22.5395 2.61337C22.5073 2.58222 22.4686 2.55845 22.4263 2.54368C20.8494 1.45049 18.9754 0.866762 17.0567 0.871118C14.5303 0.877574 12.1095 1.88548 10.325 3.67388C8.54052 5.46228 7.53793 7.88526 7.53702 10.4117C7.53702 11.4309 7.87327 12.6243 8.42731 13.9049H6.98995C6.16829 13.907 5.37339 14.1972 4.74368 14.725C4.11397 15.2529 3.68936 15.9849 3.54379 16.7935L1.50361 28.261C1.41166 28.7628 1.43148 29.2787 1.56164 29.772C1.6918 30.2653 1.9291 30.7238 2.25666 31.1149C2.58422 31.506 2.99397 31.8201 3.45675 32.0348C3.91953 32.2495 4.42395 32.3595 4.9341 32.3571H29.228C29.7387 32.3594 30.2437 32.2494 30.7072 32.0349C31.1707 31.8204 31.5813 31.5067 31.9101 31.1159C32.2389 30.7251 32.4778 30.2668 32.6098 29.7735C32.7419 29.2801 32.7638 28.7638 32.6742 28.261V28.261ZM24.3672 16.5043C24.5658 16.1559 24.7644 15.7952 24.9473 15.4416C25.0135 15.3144 25.0797 15.1889 25.1425 15.0635H27.1896C27.7367 15.0664 28.2654 15.2615 28.6832 15.6147C29.101 15.9679 29.3815 16.4567 29.4754 16.9956L30.418 22.2642H20.4401C21.8664 20.4269 23.1779 18.5032 24.3672 16.5043V16.5043ZM12.9066 21.2554C13.3875 21.907 13.8701 22.5308 14.3231 23.1109H13.2046C13.1257 23.1105 13.0502 23.0789 12.9944 23.0232C12.9386 22.9674 12.9071 22.8919 12.9066 22.813V21.2554ZM4.68844 16.9956C4.78609 16.4555 5.06969 15.9666 5.49007 15.6137C5.91045 15.2608 6.44108 15.0661 6.98995 15.0635H7.3384V21.9401C7.33578 22.0253 7.3008 22.1062 7.24059 22.1664C7.18037 22.2266 7.09946 22.2616 7.01435 22.2642H3.74414L4.68844 16.9956ZM25.4735 28.0607V31.1967H22.5535V28.0607C22.5539 27.6695 22.3999 27.2941 22.1248 27.016C21.8497 26.738 21.4759 26.5799 21.0848 26.5763H12.816C12.7373 26.5719 12.6585 26.5837 12.5844 26.6109C12.5104 26.6381 12.4427 26.68 12.3854 26.7342C12.3281 26.7885 12.2825 26.8538 12.2513 26.9262C12.2202 26.9987 12.2041 27.0767 12.2041 27.1556C12.2041 27.2344 12.2202 27.3125 12.2513 27.3849C12.2825 27.4574 12.3281 27.5227 12.3854 27.5769C12.4427 27.6311 12.5104 27.6731 12.5844 27.7002C12.6585 27.7274 12.7373 27.7392 12.816 27.7349H21.0813C21.1231 27.7355 21.1643 27.7445 21.2025 27.7614C21.2408 27.7782 21.2753 27.8025 21.304 27.8329C21.3328 27.8632 21.3551 27.899 21.3698 27.9381C21.3845 27.9772 21.3913 28.0189 21.3896 28.0607V31.1967H4.9341C4.59407 31.201 4.2575 31.1281 3.94969 30.9836C3.64189 30.839 3.37086 30.6266 3.15701 30.3622C2.93623 30.1031 2.77601 29.798 2.688 29.4692C2.6 29.1404 2.58642 28.7961 2.64827 28.4614L2.77197 27.7349H6.96905C7.11719 27.7267 7.2566 27.6622 7.35859 27.5544C7.46059 27.4467 7.51744 27.3039 7.51744 27.1556C7.51744 27.0072 7.46059 26.8645 7.35859 26.7567C7.2566 26.649 7.11719 26.5844 6.96905 26.5763H2.98801L3.54379 23.4245H7.02828C7.42183 23.4241 7.79912 23.2675 8.0774 22.9893C8.35568 22.711 8.51222 22.3337 8.51268 21.9401V15.0635H8.97786C9.04058 15.1889 9.10679 15.3144 9.17299 15.4416C9.35767 15.79 9.55629 16.1506 9.7549 16.5043C10.3908 17.595 11.1139 18.6996 11.8456 19.7623V22.8078C11.8456 22.9865 11.8808 23.1634 11.9492 23.3285C12.0176 23.4936 12.1178 23.6436 12.2441 23.7699C12.3705 23.8963 12.5205 23.9965 12.6856 24.0649C12.8507 24.1333 13.0276 24.1685 13.2063 24.1685H15.175C15.2604 24.2678 15.3493 24.381 15.4294 24.4803C15.6264 24.7225 15.8743 24.9181 16.1556 25.0533C16.4369 25.1886 16.7446 25.26 17.0567 25.2626C17.3693 25.2638 17.6782 25.1944 17.9602 25.0595C18.2423 24.9247 18.4903 24.7279 18.6857 24.4838C18.771 24.3845 18.8599 24.2713 18.9418 24.172C19.1317 23.9315 19.3303 23.6824 19.5342 23.428H30.6358L31.1863 26.5763H26.9422C26.5509 26.5795 26.1769 26.7374 25.9017 27.0155C25.6265 27.2937 25.4725 27.6694 25.4735 28.0607V28.0607ZM31.0208 30.3622C30.8029 30.626 30.5289 30.8378 30.2188 30.9821C29.9086 31.1265 29.5701 31.1998 29.228 31.1967H26.6321V28.0607C26.6307 28.0188 26.6376 27.9771 26.6525 27.938C26.6674 27.8989 26.69 27.8631 26.7188 27.8328C26.7477 27.8024 26.7823 27.7782 26.8207 27.7613C26.859 27.7445 26.9003 27.7355 26.9422 27.7349H31.4076L31.5313 28.4614C31.5933 28.7962 31.5796 29.1407 31.4913 29.4696C31.403 29.7985 31.2422 30.1034 31.0208 30.3622Z" fill="#006D3C"/>
<path d="M30.636 23.4245H19.5343C19.3305 23.6789 19.1319 23.928 18.942 24.1685C18.8566 24.2678 18.7678 24.381 18.6859 24.4803C18.4908 24.725 18.243 24.9225 17.9609 25.0579C17.6788 25.1934 17.3698 25.2634 17.0569 25.2626C16.7448 25.2607 16.4369 25.1899 16.1553 25.0553C15.8737 24.9207 15.6253 24.7255 15.4279 24.4838C15.3425 24.3845 15.2536 24.2713 15.1735 24.172H13.2047C13.0261 24.1715 12.8492 24.1359 12.6843 24.067C12.5194 23.9982 12.3696 23.8976 12.2436 23.771C12.1176 23.6443 12.0177 23.494 11.9498 23.3288C11.8818 23.1635 11.8471 22.9865 11.8475 22.8078V19.7623C11.1106 18.6996 10.3875 17.595 9.75684 16.5043C9.55822 16.1559 9.3596 15.7952 9.17492 15.4415C9.10872 15.3144 9.04251 15.1889 8.97979 15.0635H8.5059V21.9401C8.50544 22.3337 8.3489 22.711 8.07062 22.9893C7.79234 23.2675 7.41505 23.4241 7.0215 23.4245H3.537L2.98123 26.5763H6.96924C7.11738 26.5844 7.25679 26.649 7.35878 26.7567C7.46078 26.8645 7.51762 27.0072 7.51762 27.1556C7.51762 27.3039 7.46078 27.4467 7.35878 27.5544C7.25679 27.6622 7.11738 27.7267 6.96924 27.7349H2.77216L2.64846 28.4614C2.58661 28.7961 2.60018 29.1404 2.68819 29.4692C2.7762 29.798 2.93642 30.1031 3.15719 30.3622C3.37105 30.6266 3.64207 30.839 3.94988 30.9836C4.25769 31.1281 4.59426 31.201 4.93429 31.1967H21.3933V28.0607C21.395 28.0189 21.3882 27.9772 21.3735 27.9381C21.3588 27.899 21.3364 27.8632 21.3077 27.8328C21.279 27.8025 21.2445 27.7782 21.2062 27.7614C21.168 27.7445 21.1267 27.7355 21.0849 27.7349H12.8162C12.7375 27.7392 12.6587 27.7274 12.5846 27.7002C12.5106 27.6731 12.4429 27.6311 12.3856 27.5769C12.3283 27.5227 12.2827 27.4573 12.2515 27.3849C12.2204 27.3125 12.2043 27.2344 12.2043 27.1556C12.2043 27.0767 12.2204 26.9987 12.2515 26.9262C12.2827 26.8538 12.3283 26.7884 12.3856 26.7342C12.4429 26.68 12.5106 26.638 12.5846 26.6109C12.6587 26.5837 12.7375 26.5719 12.8162 26.5763H21.0815C21.4726 26.5799 21.8464 26.738 22.1215 27.016C22.3966 27.2941 22.5507 27.6695 22.5502 28.0607V31.1967H25.4702V28.0607C25.4693 27.6694 25.6232 27.2937 25.8984 27.0155C26.1736 26.7374 26.5477 26.5795 26.9389 26.5763H31.1865L30.636 23.4245ZM9.91538 27.9666C9.76231 27.9666 9.61268 27.9212 9.48543 27.8361C9.35818 27.751 9.25904 27.6301 9.20054 27.4886C9.14204 27.3472 9.12683 27.1916 9.15682 27.0415C9.18681 26.8914 9.26065 26.7535 9.36901 26.6454C9.47737 26.5373 9.61537 26.4638 9.76554 26.4341C9.91571 26.4045 10.0713 26.42 10.2126 26.4788C10.3539 26.5377 10.4746 26.6371 10.5594 26.7645C10.6442 26.892 10.6893 27.0417 10.6889 27.1948C10.6889 27.2963 10.6689 27.3968 10.63 27.4905C10.5911 27.5843 10.5341 27.6694 10.4623 27.7411C10.3904 27.8128 10.3051 27.8696 10.2113 27.9083C10.1174 27.947 10.0169 27.9668 9.91538 27.9666V27.9666Z" fill="#FBFDF8"/>
<path d="M31.0207 30.3622C30.8029 30.626 30.5289 30.8378 30.2187 30.9821C29.9085 31.1265 29.5701 31.1998 29.228 31.1967H26.632V28.0607C26.6306 28.0188 26.6376 27.9771 26.6525 27.938C26.6674 27.8988 26.6899 27.8631 26.7188 27.8328C26.7476 27.8024 26.7823 27.7781 26.8206 27.7613C26.859 27.7445 26.9003 27.7355 26.9421 27.7349H31.4075L31.5312 28.4614C31.5932 28.7962 31.5795 29.1407 31.4912 29.4696C31.4029 29.7985 31.2421 30.1034 31.0207 30.3622Z" fill="#4F6354"/>
<path d="M7.34537 15.0635V21.9401C7.34275 22.0253 7.30777 22.1062 7.24755 22.1664C7.18734 22.2266 7.10643 22.2616 7.02131 22.2642H3.74414L4.68844 16.9956C4.78608 16.4555 5.06969 15.9666 5.49007 15.6137C5.91044 15.2608 6.44108 15.0661 6.98995 15.0635H7.34537Z" fill="#4F6354"/>
<path d="M17.0568 3.83301C16.0895 3.83343 15.1342 4.04758 14.2592 4.46013C13.3843 4.87268 12.6113 5.47345 11.9955 6.21948C11.3797 6.96551 10.9363 7.83838 10.6971 8.77568C10.4579 9.71297 10.4287 10.6915 10.6117 11.6414C10.7946 12.5913 11.1852 13.489 11.7554 14.2704C12.3256 15.0518 13.0615 15.6976 13.9103 16.1616C14.7591 16.6255 15.7 16.8962 16.6656 16.9542C17.6312 17.0123 18.5977 16.8563 19.496 16.4974C20.1394 16.2408 20.7371 15.8819 21.2661 15.4346C22.2995 14.5695 23.0417 13.4074 23.3919 12.106C23.7421 10.8045 23.6834 9.42686 23.2238 8.15994C22.7641 6.89302 21.9258 5.79822 20.8225 5.02414C19.7193 4.25007 18.4045 3.83421 17.0568 3.83301V3.83301ZM19.2817 15.4346C18.1963 15.9167 16.9842 16.0349 15.8261 15.7718C14.6681 15.5087 13.6261 14.8782 12.8556 13.9745C12.0851 13.0708 11.6273 11.9423 11.5506 10.7572C11.4739 9.57207 11.7823 8.39391 12.4299 7.39842C13.0775 6.40292 14.0295 5.64343 15.144 5.23319C16.2585 4.82296 17.4757 4.78398 18.6141 5.12205C19.7526 5.46013 20.7513 6.15715 21.4612 7.10917C22.1711 8.06119 22.5543 9.21719 22.5536 10.4048C22.5523 11.4705 22.2428 12.5131 21.6622 13.4069C21.0816 14.3006 20.2549 15.0073 19.2817 15.4416V15.4346Z" fill="#4F6354"/>
<path d="M22.5536 10.4116C22.5509 11.4982 22.2262 12.5596 21.6205 13.4617C21.0148 14.3638 20.1554 15.0661 19.1507 15.48C18.1461 15.8939 17.0413 16.0008 15.976 15.7872C14.9106 15.5735 13.9325 15.0489 13.1651 14.2796C12.3978 13.5103 11.8756 12.5308 11.6647 11.4649C11.4537 10.399 11.5634 9.29453 11.9798 8.29094C12.3963 7.28734 13.1008 6.42968 14.0044 5.8263C14.9081 5.22292 15.9703 4.90088 17.0568 4.90088C18.5154 4.9064 19.9124 5.48922 20.9425 6.52188C21.9725 7.55455 22.5518 8.95305 22.5536 10.4116V10.4116Z" fill="#FBFDF8"/>
<path d="M10.6887 27.1949C10.6887 27.3479 10.6434 27.4975 10.5584 27.6247C10.4734 27.7519 10.3525 27.8511 10.2112 27.9096C10.0698 27.9682 9.9143 27.9835 9.76425 27.9536C9.61419 27.9238 9.47636 27.8501 9.36817 27.7419C9.25999 27.6338 9.18631 27.4959 9.15647 27.3459C9.12662 27.1958 9.14194 27.0403 9.20049 26.8989C9.25903 26.7576 9.35818 26.6368 9.48539 26.5518C9.61261 26.4668 9.76217 26.4214 9.91516 26.4214C10.0168 26.4212 10.1175 26.441 10.2115 26.4798C10.3054 26.5186 10.3908 26.5756 10.4627 26.6474C10.5345 26.7193 10.5915 26.8047 10.6303 26.8986C10.6691 26.9926 10.689 27.0933 10.6887 27.1949Z" fill="#4F6354"/>
<path d="M23.8829 5.46018C24.2745 5.46018 24.592 5.14271 24.592 4.75109C24.592 4.35947 24.2745 4.04199 23.8829 4.04199C23.4913 4.04199 23.1738 4.35947 23.1738 4.75109C23.1738 5.14271 23.4913 5.46018 23.8829 5.46018Z" fill="#4F6354"/>
<path d="M14.3232 23.1056H13.2047C13.1258 23.1052 13.0503 23.0736 12.9945 23.0179C12.9387 22.9621 12.9072 22.8866 12.9067 22.8077V21.2554C13.3876 21.9017 13.8702 22.5255 14.3232 23.1056Z" fill="#4F6354"/>
</svg>
