<svg xmlns="http://www.w3.org/2000/svg" viewBox="0 0 187.22 187.22"><defs><style>.cls-1,.cls-4{fill:#4f6354;}.cls-1{opacity:0;}.cls-2{fill:#fbfdf8;}.cls-3{fill:#006d3c;}</style></defs><g id="Layer_2" data-name="Layer 2"><g id="Layer_30" data-name="Layer 30"><rect class="cls-1" width="187.22" height="187.22"/><path class="cls-2" d="M160.59,41.82H69.25A13.52,13.52,0,0,1,55.73,28.3V24.54A13.52,13.52,0,0,1,69.25,11h91.34a13.52,13.52,0,0,1,13.52,13.53V28.3A13.52,13.52,0,0,1,160.59,41.82Zm13.52,119.43v-3.76A13.52,13.52,0,0,0,160.59,144H69.25a13.52,13.52,0,0,0-13.52,13.52v3.76a13.52,13.52,0,0,0,13.52,13.53h91.34A13.52,13.52,0,0,0,174.11,161.25Zm0-66.48V91a13.52,13.52,0,0,0-13.52-13.53H69.25A13.52,13.52,0,0,0,55.73,91v3.75A13.52,13.52,0,0,0,69.25,108.3h91.34A13.52,13.52,0,0,0,174.11,94.77Z"/><path class="cls-3" d="M160.59,43.75H69.25A15.47,15.47,0,0,1,53.8,28.3V24.54A15.47,15.47,0,0,1,69.25,9.08h91.34A15.47,15.47,0,0,1,176,24.54V28.3A15.47,15.47,0,0,1,160.59,43.75ZM69.25,12.94a11.61,11.61,0,0,0-11.6,11.6V28.3a11.62,11.62,0,0,0,11.6,11.6h91.34a11.62,11.62,0,0,0,11.6-11.6V24.54a11.61,11.61,0,0,0-11.6-11.6Zm91.34,163.77H69.25A15.47,15.47,0,0,1,53.8,161.25v-3.76A15.47,15.47,0,0,1,69.25,142h91.34A15.47,15.47,0,0,1,176,157.49v3.76A15.47,15.47,0,0,1,160.59,176.71ZM69.25,145.89a11.62,11.62,0,0,0-11.6,11.6v3.76a11.61,11.61,0,0,0,11.6,11.6h91.34a11.61,11.61,0,0,0,11.6-11.6v-3.76a11.62,11.62,0,0,0-11.6-11.6Zm91.34-35.66H69.25A15.47,15.47,0,0,1,53.8,94.77V91A15.47,15.47,0,0,1,69.25,75.56h91.34A15.47,15.47,0,0,1,176,91v3.75A15.47,15.47,0,0,1,160.59,110.23ZM69.25,79.42A11.61,11.61,0,0,0,57.65,91v3.75a11.61,11.61,0,0,0,11.6,11.6h91.34a11.61,11.61,0,0,0,11.6-11.6V91a11.61,11.61,0,0,0-11.6-11.6Z"/><path class="cls-4" d="M161.64,26.27H134.08a3.84,3.84,0,0,1-3.84-3.85h0a3.85,3.85,0,0,1,3.84-3.85h27.56a3.85,3.85,0,0,1,3.84,3.85h0A3.84,3.84,0,0,1,161.64,26.27Zm3.84,129.11h0a3.84,3.84,0,0,0-3.84-3.85H134.08a3.84,3.84,0,0,0-3.84,3.85h0a3.84,3.84,0,0,0,3.84,3.85h27.56A3.84,3.84,0,0,0,165.48,155.38ZM24.92,13.44a13,13,0,1,0,13,13,13,13,0,0,0-13-13m0-4a17,17,0,1,1-17,17,17,17,0,0,1,17-17Zm0,137a13,13,0,1,0,13,13,13,13,0,0,0-13-13m0-4a17,17,0,1,1-17,17,17,17,0,0,1,17-17Zm0-62.48a13,13,0,1,0,13,13,13,13,0,0,0-13-13m0-4a17,17,0,1,1-17,17,17,17,0,0,1,17-17Zm140.56,13h0a3.85,3.85,0,0,0-3.84-3.85H134.08a3.85,3.85,0,0,0-3.84,3.85h0a3.84,3.84,0,0,0,3.84,3.85h27.56A3.84,3.84,0,0,0,165.48,88.9Z"/></g></g></svg>