<?xml version="1.0" encoding="utf-8"?>
<svg version="1.1" id="Layer_1" xmlns="http://www.w3.org/2000/svg" xmlns:xlink="http://www.w3.org/1999/xlink" x="0px" y="0px"
 xml:space="preserve">
<style type="text/css">
	.st0{fill-rule:evenodd;clip-rule:evenodd;fill:#006D3C;}
</style>
<path class="st0" d="M11.1,9.6c0.9,0.6,1.6,1.5,1.6,2.6v2h2.7v-2C15.3,10.7,13,9.9,11.1,9.6z M6,8.8c1.5,0,2.7-1.2,2.7-2.7
	c0-1.5-1.2-2.7-2.7-2.7c-1.5,0-2.7,1.2-2.7,2.7C3.3,7.7,4.5,8.8,6,8.8z M10,8.8c1.5,0,2.7-1.2,2.7-2.7c0-1.5-1.2-2.7-2.7-2.7
	c-0.3,0-0.6,0.1-0.9,0.2C9.7,4.4,10,5.2,10,6.2C10,7.1,9.7,8,9.1,8.7C9.4,8.8,9.7,8.8,10,8.8z M6,9.5c-1.8,0-5.3,0.9-5.3,2.7v2h10.7
	v-2C11.3,10.4,7.8,9.5,6,9.5z"/>
</svg>
