<svg width="32" height="32" viewBox="0 0 32 32" fill="none" xmlns="http://www.w3.org/2000/svg">
<path d="M31.0673 14.3997V14.3728C31.0646 14.2834 31.0556 14.1944 31.0404 14.1063C31.0004 13.8812 30.9333 13.6617 30.8405 13.4528C30.6716 13.0407 30.4119 12.672 30.0807 12.3742C30.0532 12.3395 30.0218 12.3081 29.9871 12.2806L25.5378 8.37376L25.4443 8.29286V5.18708C25.4443 3.02668 24.0056 1.28027 22.2322 1.28027H9.88046C8.10709 1.28027 6.66206 3.02668 6.66206 5.18708V8.11997L6.36861 8.37376L1.91932 12.2806C1.89394 12.3075 1.86698 12.3329 1.84001 12.3599C1.51369 12.6608 1.25055 13.0237 1.06594 13.4274C0.972556 13.6449 0.905461 13.8728 0.866084 14.1063C0.840528 14.2636 0.82727 14.4227 0.826429 14.5821C0.823698 14.667 0.828475 14.7519 0.840705 14.8359V14.8486C0.828897 14.9236 0.824118 14.9996 0.826429 15.0755V28.6628C0.826012 28.9922 0.890465 29.3184 1.01611 29.6228C1.14175 29.9272 1.32612 30.2039 1.5587 30.437C1.79127 30.6702 2.06749 30.8553 2.37159 30.9817C2.67569 31.1081 3.00171 31.1734 3.33104 31.1738H28.6674C29.0019 31.1758 29.3331 31.1077 29.6398 30.9739C30.0914 30.7794 30.4768 30.4579 30.7491 30.0485C31.0214 29.639 31.1689 29.1593 31.1736 28.6676V15.0802C31.1791 14.8489 31.1431 14.6184 31.0673 14.3997V14.3997ZM7.66613 5.18708C7.66613 3.58661 8.65274 2.27958 9.88681 2.27958H22.2338C23.4599 2.27958 24.4545 3.58661 24.4545 5.18708V18.3065L21.2551 21.5075L21.1076 21.6661H21.0949V21.6534L18.7077 19.2535C18.2352 18.7917 17.6447 18.469 17.0009 18.3208C16.3157 18.1507 15.5972 18.1688 14.9214 18.3732C14.3608 18.5444 13.8487 18.8461 13.4272 19.2535L11.2271 21.4536L10.9337 21.7597L7.66613 18.4937V5.18708ZM2.63946 12.9864L6.66206 9.46665V17.5737L2.62677 13.5337C2.58962 13.498 2.5603 13.455 2.54066 13.4075C2.52102 13.3599 2.5115 13.3087 2.51269 13.2573C2.51388 13.2058 2.52577 13.1551 2.54759 13.1085C2.56942 13.0619 2.6007 13.0203 2.63946 12.9864ZM3.94649 30.1602L5.28048 28.8262C5.28048 28.8135 5.29317 28.8135 5.30745 28.8008C5.38217 28.705 5.4239 28.5876 5.42641 28.4662C5.42641 28.3994 5.41322 28.3334 5.38759 28.2718C5.36197 28.2102 5.32441 28.1543 5.27709 28.1072C5.22976 28.0602 5.17361 28.023 5.11185 27.9978C5.05009 27.9725 4.98395 27.9597 4.91724 27.9602C4.79609 27.9632 4.6792 28.0055 4.58414 28.0807C4.56986 28.0934 4.56986 28.1061 4.55717 28.1061L2.66642 30C2.41736 29.8781 2.20772 29.6884 2.06154 29.4527C1.91537 29.217 1.83859 28.9449 1.84001 28.6676V15.0802C1.83785 15.0312 1.84212 14.9822 1.8527 14.9343C1.85637 14.8346 1.87344 14.7359 1.90346 14.6408C1.93539 14.5282 1.98462 14.4211 2.04939 14.3236L9.62667 21.8898L10.2405 22.4243H10.2532L9.97405 22.7035L9.46646 23.2111L9.30784 23.357L9.22853 23.4506H9.21426L8.76219 23.9042L8.72412 23.9518C8.67813 23.9969 8.64155 24.0507 8.6165 24.1101C8.59145 24.1695 8.57843 24.2332 8.57819 24.2976C8.57798 24.3642 8.59092 24.4302 8.61625 24.4917C8.64159 24.5533 8.67882 24.6093 8.72583 24.6564C8.77284 24.7036 8.82869 24.741 8.89018 24.7665C8.95168 24.7921 9.01761 24.8052 9.08419 24.8052C9.21647 24.8063 9.34456 24.7589 9.44426 24.672C9.44426 24.6577 9.44426 24.6577 9.45853 24.6577L9.55212 24.5657L10.0708 24.0454L10.1914 23.9376L10.5245 23.5918L10.7243 23.3919H10.7386L10.9242 23.192L11.0051 23.1111H11.0178L11.6522 22.4846L11.638 22.4719L11.9457 22.1785L14.1331 19.9736C14.3846 19.7204 14.6837 19.5194 15.0133 19.3822C15.3428 19.245 15.6962 19.1744 16.0532 19.1744C16.4101 19.1744 16.7635 19.245 17.0931 19.3822C17.4226 19.5194 17.7217 19.7204 17.9733 19.9736L20.3605 22.3736H20.3732V22.3862L20.9997 23.0207H21.014L21.2805 23.2888V23.3015L21.5723 23.587L21.9451 23.9471V23.9598L22.118 24.1342H22.1323L28.1598 30.1618L3.94649 30.1602ZM30.16 28.6676C30.1624 28.9317 30.0929 29.1915 29.9591 29.4192C29.8253 29.6469 29.6321 29.8339 29.4002 29.9604L23.6344 24.2009L22.8413 23.4078L22.7081 23.2745L22.0419 22.6067L21.7611 22.3276H21.7754L22.3353 21.8517L29.9221 14.2649C29.9626 14.3337 29.9981 14.4052 30.0284 14.479C30.0519 14.5255 30.07 14.5744 30.0823 14.625C30.135 14.7704 30.1618 14.9239 30.1616 15.0786L30.16 28.6676Z" fill="#006D3C"/>
<path d="M29.3607 12.9863L25.3333 9.46654V17.5736L29.3734 13.5336C29.4105 13.4979 29.4398 13.4549 29.4595 13.4074C29.4791 13.3598 29.4887 13.3086 29.4875 13.2571C29.4863 13.2057 29.4744 13.155 29.4526 13.1084C29.4307 13.0618 29.3994 13.0202 29.3607 12.9863V12.9863ZM2.63956 12.9863C2.6008 13.0202 2.56952 13.0618 2.5477 13.1084C2.52587 13.155 2.51399 13.2057 2.5128 13.2571C2.5116 13.3086 2.52113 13.3598 2.54077 13.4074C2.5604 13.4549 2.58973 13.4979 2.62687 13.5336L6.66216 17.5736V9.46654L2.63956 12.9863ZM7.09361 25.6965C6.95882 25.6962 6.82698 25.736 6.7148 25.8107C6.60262 25.8854 6.51515 25.9918 6.4635 26.1163C6.41185 26.2408 6.39833 26.3778 6.42467 26.51C6.451 26.6422 6.516 26.7636 6.61142 26.8588C6.70684 26.954 6.82839 27.0187 6.96064 27.0447C7.09289 27.0707 7.22989 27.0569 7.35427 27.0049C7.47865 26.953 7.5848 26.8653 7.65926 26.7529C7.73372 26.6406 7.77313 26.5086 7.7725 26.3739C7.77084 26.1945 7.69873 26.0229 7.57173 25.8962C7.44473 25.7695 7.27301 25.6978 7.09361 25.6965ZM19.2407 5.78656C18.961 5.29975 18.5491 4.90213 18.0527 4.63974C17.5171 4.36571 16.922 4.2284 16.3205 4.24001C15.7552 4.22949 15.1933 4.32916 14.6661 4.53346C14.1968 4.72417 13.7734 5.01264 13.4241 5.37967C13.0749 5.7467 12.8077 6.18388 12.6406 6.66214C12.4602 7.18238 12.3696 7.72947 12.3725 8.28007C12.353 8.92239 12.4948 9.55935 12.7849 10.1327C13.0533 10.6429 13.4726 11.0579 13.9857 11.3208C14.5661 11.6155 15.2115 11.7589 15.8621 11.738C16.2291 11.7396 16.5952 11.704 16.955 11.6317C17.2665 11.5725 17.5704 11.4783 17.8607 11.3509V10.7609C17.5605 10.8739 17.2532 10.9672 16.9407 11.0401C16.5869 11.1208 16.2251 11.1612 15.8621 11.1606C15.3225 11.1786 14.7866 11.0642 14.3013 10.8275C13.8798 10.6068 13.5381 10.2595 13.3242 9.83454C13.0971 9.33748 12.9885 8.7945 13.007 8.24834C13 7.77346 13.0719 7.30071 13.2195 6.84931C13.3575 6.44663 13.5804 6.07826 13.873 5.76911C14.1594 5.45726 14.5146 5.21664 14.9104 5.06642C15.3598 4.88825 15.8404 4.80196 16.3237 4.81263C16.8135 4.80286 17.2984 4.91171 17.737 5.12987C18.1469 5.3457 18.4848 5.67647 18.7094 6.08159C18.9568 6.53444 19.0768 7.04588 19.0567 7.56152C19.0646 7.86276 19.0288 8.16356 18.9505 8.45455C18.8984 8.68889 18.7895 8.90681 18.6332 9.08903C18.5728 9.16499 18.4958 9.22609 18.4081 9.26761C18.3203 9.30913 18.2243 9.32998 18.1272 9.32854C17.9698 9.33331 17.8167 9.27639 17.7005 9.16992C17.58 9.05096 17.5261 8.82413 17.5261 8.50372V8.35938C17.5261 8.30703 17.5403 8.22613 17.5403 8.10717L17.6323 6.26718C17.4329 6.20032 17.228 6.15096 17.0201 6.11966C16.7578 6.07694 16.4926 6.05467 16.227 6.05304C15.8582 6.04438 15.494 6.13652 15.1737 6.31952C14.8781 6.49971 14.6381 6.75831 14.4805 7.06662C14.3164 7.40273 14.2338 7.77281 14.2394 8.14682C14.2184 8.59687 14.3553 9.04013 14.6265 9.39992C14.7587 9.55923 14.9265 9.68527 15.1163 9.76792C15.3061 9.85057 15.5127 9.88751 15.7194 9.87578C16.0138 9.88396 16.3034 9.79964 16.5474 9.63468C16.7635 9.48287 16.9375 9.27877 17.0534 9.04144H17.093C17.1206 9.26806 17.23 9.47678 17.4007 9.62834C17.4873 9.71566 17.5915 9.78348 17.7064 9.82725C17.8213 9.87102 17.9442 9.88973 18.0669 9.88213C18.3176 9.88563 18.5635 9.81379 18.7728 9.67592C18.9727 9.5399 19.1409 9.36246 19.2661 9.15565C19.4037 8.92197 19.5073 8.66987 19.5738 8.40696C19.6386 8.12719 19.67 7.84074 19.6674 7.55358C19.6801 6.93762 19.5331 6.32887 19.2407 5.78656V5.78656ZM16.8932 7.89303C16.886 8.26143 16.7902 8.62269 16.614 8.94627C16.5273 9.07464 16.4084 9.17797 16.2692 9.2459C16.13 9.31383 15.9754 9.34397 15.8209 9.3333C15.6958 9.33933 15.571 9.3174 15.4555 9.26911C15.34 9.22081 15.2367 9.14737 15.1531 9.05413C14.9945 8.86696 14.9136 8.57827 14.9136 8.15951C14.91 7.90014 14.9552 7.64241 15.0468 7.39972C15.1285 7.17041 15.2744 6.96944 15.4672 6.82076C15.689 6.66459 15.9558 6.58496 16.227 6.59393C16.3606 6.59494 16.4941 6.60395 16.6267 6.6209C16.7472 6.64787 16.8535 6.67324 16.9439 6.70021L16.8932 7.89303ZM21.2806 16.4395H18.5206C18.4324 16.4407 18.3481 16.4764 18.2859 16.539C18.2236 16.6015 18.1883 16.6859 18.1875 16.7742C18.1871 16.818 18.1954 16.8615 18.212 16.9021C18.2286 16.9427 18.2531 16.9796 18.2841 17.0107C18.3151 17.0417 18.352 17.0662 18.3926 17.0828C18.4332 17.0994 18.4767 17.1077 18.5206 17.1073H21.2806C21.3684 17.1056 21.4522 17.07 21.5143 17.0079C21.5764 16.9458 21.6121 16.862 21.6137 16.7742C21.6102 16.6868 21.574 16.6039 21.5123 16.5419C21.4507 16.4799 21.3679 16.4434 21.2806 16.4395V16.4395ZM21.2552 13.6668H15.4402C15.3519 13.6668 15.2671 13.7019 15.2047 13.7644C15.1422 13.8268 15.1071 13.9116 15.1071 13.9999C15.1071 14.0882 15.1422 14.173 15.2047 14.2354C15.2671 14.2979 15.3519 14.333 15.4402 14.333H21.2552C21.3436 14.333 21.4283 14.2979 21.4907 14.2354C21.5532 14.173 21.5883 14.0882 21.5883 13.9999C21.5883 13.9116 21.5532 13.8268 21.4907 13.7644C21.4283 13.7019 21.3436 13.6668 21.2552 13.6668V13.6668ZM13.5082 13.6668H10.7466C10.6583 13.6668 10.5736 13.7019 10.5111 13.7644C10.4486 13.8268 10.4135 13.9116 10.4135 13.9999C10.4135 14.0882 10.4486 14.173 10.5111 14.2354C10.5736 14.2979 10.6583 14.333 10.7466 14.333H13.5066C13.595 14.333 13.6797 14.2979 13.7422 14.2354C13.8046 14.173 13.8397 14.0882 13.8397 13.9999C13.8397 13.9116 13.8046 13.8268 13.7422 13.7644C13.6797 13.7019 13.595 13.6668 13.5066 13.6668H13.5082ZM16.8392 16.4395H10.7197C10.6323 16.4434 10.5496 16.4799 10.4879 16.5419C10.4262 16.6039 10.3901 16.6868 10.3866 16.7742C10.3882 16.862 10.4238 16.9458 10.4859 17.0079C10.548 17.07 10.6318 17.1056 10.7197 17.1073H16.8408C16.8846 17.1075 16.928 17.099 16.9685 17.0823C17.009 17.0657 17.0458 17.0411 17.0768 17.0102C17.1078 16.9792 17.1323 16.9424 17.149 16.9019C17.1657 16.8614 17.1741 16.818 17.1739 16.7742C17.1727 16.6861 17.1373 16.6019 17.0751 16.5394C17.0129 16.477 16.9289 16.4411 16.8408 16.4395H16.8392ZM21.2806 15.0405H10.7197C10.6313 15.0405 10.5466 15.0755 10.4841 15.138C10.4217 15.2005 10.3866 15.2852 10.3866 15.3736C10.3866 15.4619 10.4217 15.5466 10.4841 15.6091C10.5466 15.6716 10.6313 15.7067 10.7197 15.7067H21.2806C21.3689 15.7067 21.4537 15.6716 21.5161 15.6091C21.5786 15.5466 21.6137 15.4619 21.6137 15.3736C21.6137 15.2852 21.5786 15.2005 21.5161 15.138C21.4537 15.0755 21.3689 15.0405 21.2806 15.0405V15.0405Z" fill="#4F6354"/>
<path d="M30.1599 15.0799V28.6673C30.1623 28.9314 30.0928 29.1912 29.959 29.4189C29.8252 29.6466 29.632 29.8336 29.4001 29.9601L23.6343 24.2006L22.8412 23.4075L22.708 23.2742L22.0417 22.6065L21.761 22.3273H21.7753L22.3352 21.8514L29.922 14.2646C29.9625 14.3334 29.998 14.4049 30.0283 14.4788C30.0518 14.5252 30.0699 14.5741 30.0822 14.6247C30.1345 14.7707 30.1608 14.9248 30.1599 15.0799ZM5.30733 28.8006C5.38206 28.7048 5.42379 28.5874 5.4263 28.4659C5.4263 28.3992 5.41311 28.3331 5.38748 28.2715C5.36185 28.2099 5.3243 28.154 5.27698 28.107C5.22965 28.0599 5.1735 28.0227 5.11174 27.9975C5.04998 27.9722 4.98384 27.9595 4.91713 27.9599C4.79597 27.963 4.67909 28.0053 4.58403 28.0804C4.56975 28.0931 4.56975 28.1058 4.55706 28.1058L2.66631 29.9997C2.41725 29.8778 2.2076 29.6881 2.06143 29.4524C1.91526 29.2167 1.83848 28.9446 1.8399 28.6673V15.0799C1.83774 15.0309 1.84201 14.9819 1.85259 14.934C1.85626 14.8343 1.87333 14.7356 1.90335 14.6406C1.93528 14.5279 1.98451 14.4209 2.04928 14.3233L9.62656 21.8895L10.2404 22.424H10.2531L9.97393 22.7032L9.46635 23.2108L9.30773 23.3567L9.22842 23.4503H9.21414L8.76208 23.904L8.72401 23.9515C8.67802 23.9967 8.64144 24.0505 8.61639 24.1098C8.59134 24.1692 8.57832 24.2329 8.57808 24.2973C8.57787 24.3639 8.5908 24.4299 8.61614 24.4915C8.64147 24.553 8.67871 24.609 8.72572 24.6562C8.77273 24.7033 8.82858 24.7407 8.89007 24.7663C8.95157 24.7918 9.01749 24.8049 9.08408 24.8049C9.21635 24.806 9.34445 24.7586 9.44414 24.6717C9.44414 24.6574 9.44414 24.6574 9.45842 24.6574L9.55201 24.5654L10.0707 24.0451L10.1912 23.9373L10.5243 23.5915L10.7242 23.3916H10.7385L10.9241 23.1918L11.005 23.1109H11.0177L11.6521 22.4843L11.6379 22.4716L11.9456 22.1782L14.133 19.9734C14.3845 19.7201 14.6836 19.5191 15.0131 19.3819C15.3427 19.2447 15.6961 19.1741 16.053 19.1741C16.41 19.1741 16.7634 19.2447 17.0929 19.3819C17.4225 19.5191 17.7216 19.7201 17.9731 19.9734L20.3604 22.3733H20.3731V22.386L20.9996 23.0204H21.0139L21.2804 23.2885V23.3012L21.5722 23.5867L21.945 23.9468V23.9595L22.1179 24.134H22.1322L28.1597 30.1615H3.94637L5.28037 28.8275C5.28037 28.8133 5.29306 28.8133 5.30733 28.8006ZM6.41767 26.3737C6.41705 26.5086 6.45655 26.6407 6.53115 26.7531C6.60575 26.8655 6.71209 26.9532 6.83665 27.0051C6.96121 27.0569 7.09838 27.0706 7.23071 27.0443C7.36305 27.018 7.48459 26.953 7.57988 26.8574C7.67517 26.7619 7.73992 26.6402 7.7659 26.5078C7.79187 26.3754 7.7779 26.2383 7.72576 26.1139C7.67362 25.9894 7.58566 25.8833 7.47307 25.809C7.36047 25.7346 7.22832 25.6954 7.0934 25.6964C6.91372 25.6972 6.7416 25.7687 6.61425 25.8955C6.48691 26.0222 6.41458 26.194 6.41292 26.3737H6.41767ZM24.4401 5.1868V18.3063L21.0964 21.6531V21.6658L21.0837 21.6531L18.6964 19.2532C18.224 18.7914 17.6335 18.4687 16.9897 18.3205C16.3045 18.1504 15.586 18.1685 14.9102 18.3729C14.3496 18.5442 13.8375 18.8459 13.416 19.2532L11.227 21.4533L10.9336 21.7594L7.66601 18.4934V5.1868C7.66601 3.58633 8.65263 2.2793 9.88669 2.2793H22.2337C23.4535 2.2793 24.4401 3.58633 24.4401 5.1868ZM21.255 13.6666H15.44C15.3516 13.6666 15.2669 13.7017 15.2044 13.7642C15.142 13.8267 15.1069 13.9114 15.1069 13.9997C15.1069 14.0881 15.142 14.1728 15.2044 14.2353C15.2669 14.2977 15.3516 14.3328 15.44 14.3328H21.255C21.3433 14.3328 21.4281 14.2977 21.4905 14.2353C21.553 14.1728 21.5881 14.0881 21.5881 13.9997C21.5881 13.9114 21.553 13.8267 21.4905 13.7642C21.4281 13.7017 21.3433 13.6666 21.255 13.6666V13.6666ZM12.3723 8.27355C12.3528 8.91587 12.4945 9.55284 12.7847 10.1262C13.0531 10.6364 13.4724 11.0513 13.9854 11.3143C14.5653 11.6111 15.2107 11.7568 15.8619 11.7378C16.2289 11.7394 16.595 11.7038 16.9548 11.6315C17.2663 11.5723 17.5701 11.4781 17.8605 11.3508V10.7607C17.5603 10.8738 17.253 10.967 16.9405 11.0399C16.5867 11.1206 16.2248 11.161 15.8619 11.1604C15.3223 11.1784 14.7864 11.0641 14.3011 10.8273C13.8796 10.6066 13.5379 10.2593 13.324 9.83437C13.0969 9.33731 12.9883 8.79433 13.0067 8.24817C12.9998 7.77329 13.0716 7.30054 13.2193 6.84914C13.3573 6.44645 13.5802 6.07809 13.8728 5.76894C14.1591 5.45709 14.5144 5.21646 14.9102 5.06625C15.3596 4.88808 15.8402 4.80179 16.3235 4.81246C16.8133 4.80269 17.2982 4.91153 17.7368 5.1297C18.1466 5.34553 18.4846 5.67629 18.7091 6.08142C18.9565 6.53427 19.0766 7.04571 19.0565 7.56134C19.0644 7.86259 19.0286 8.16339 18.9502 8.45437C18.8982 8.68872 18.7893 8.90664 18.633 9.08885C18.5726 9.16482 18.4956 9.22591 18.4078 9.26744C18.3201 9.30896 18.224 9.32981 18.127 9.32837C17.9695 9.33313 17.8164 9.27622 17.7003 9.16975C17.5798 9.05079 17.5258 8.82396 17.5258 8.50355V8.3592C17.5258 8.30686 17.5401 8.22596 17.5401 8.107L17.6321 6.267C17.4327 6.20014 17.2278 6.15079 17.0198 6.11949C16.7576 6.07677 16.4924 6.05449 16.2267 6.05287C15.858 6.04421 15.4938 6.13635 15.1735 6.31935C14.8778 6.49954 14.6379 6.75814 14.4803 7.06645C14.3162 7.40256 14.2336 7.77264 14.2392 8.14665C14.2182 8.5967 14.3551 9.03995 14.6263 9.39975C14.7585 9.55905 14.9263 9.6851 15.1161 9.76775C15.3059 9.8504 15.5125 9.88734 15.7192 9.87561C16.0136 9.88379 16.3031 9.79947 16.5471 9.63451C16.7632 9.4827 16.9373 9.2786 17.0531 9.04127H17.0928C17.1204 9.26788 17.2298 9.47661 17.4005 9.62816C17.4871 9.71549 17.5913 9.7833 17.7062 9.82707C17.8211 9.87084 17.944 9.88956 18.0667 9.88195C18.3174 9.88545 18.5633 9.81362 18.7726 9.67575C18.9725 9.53973 19.1407 9.36229 19.2659 9.15547C19.4035 8.92179 19.5071 8.6697 19.5736 8.40679C19.6384 8.12702 19.6698 7.84057 19.6672 7.55341C19.681 6.93531 19.5339 6.32423 19.2405 5.78004C18.9608 5.29323 18.5488 4.89562 18.0525 4.63322C17.5169 4.3592 16.9218 4.22188 16.3203 4.2335C15.755 4.22297 15.1931 4.32264 14.6659 4.52694C14.1959 4.71834 13.7721 5.00778 13.4228 5.37595C13.0735 5.74411 12.8068 6.18254 12.6403 6.66197C12.46 7.1822 12.3694 7.72929 12.3723 8.27989V8.27355ZM10.4133 13.9997C10.4145 14.0877 10.45 14.1717 10.5122 14.2339C10.5744 14.2961 10.6585 14.3316 10.7464 14.3328H13.5064C13.5947 14.3328 13.6795 14.2977 13.7419 14.2353C13.8044 14.1728 13.8395 14.0881 13.8395 13.9997C13.8395 13.9114 13.8044 13.8267 13.7419 13.7642C13.6795 13.7017 13.5947 13.6666 13.5064 13.6666H10.7464C10.6585 13.6679 10.5744 13.7033 10.5122 13.7656C10.45 13.8278 10.4145 13.9118 10.4133 13.9997V13.9997ZM17.1737 16.774C17.1725 16.6859 17.137 16.6017 17.0749 16.5392C17.0127 16.4768 16.9287 16.4409 16.8406 16.4393H10.7194C10.6321 16.4432 10.5494 16.4798 10.4877 16.5418C10.426 16.6037 10.3898 16.6866 10.3863 16.774C10.388 16.8618 10.4236 16.9456 10.4857 17.0077C10.5478 17.0698 10.6316 17.1055 10.7194 17.1071H16.8406C16.8844 17.1073 16.9278 17.0988 16.9683 17.0822C17.0088 17.0655 17.0456 17.041 17.0766 17.01C17.1076 16.979 17.1321 16.9422 17.1488 16.9017C17.1654 16.8612 17.1739 16.8178 17.1737 16.774V16.774ZM21.6151 16.774C21.6116 16.6866 21.5754 16.6037 21.5137 16.5418C21.452 16.4798 21.3693 16.4432 21.282 16.4393H18.522C18.4337 16.4405 18.3495 16.4763 18.2872 16.5388C18.225 16.6013 18.1897 16.6858 18.1889 16.774C18.1884 16.8179 18.1968 16.8614 18.2134 16.902C18.2299 16.9426 18.2545 16.9795 18.2855 17.0105C18.3165 17.0415 18.3534 17.066 18.394 17.0826C18.4346 17.0992 18.4781 17.1075 18.522 17.1071H21.282C21.3695 17.1051 21.4529 17.0693 21.5147 17.0072C21.5765 16.9451 21.6119 16.8616 21.6135 16.774H21.6151ZM21.6151 15.3734C21.6138 15.2854 21.5783 15.2014 21.5161 15.1392C21.4539 15.077 21.3699 15.0415 21.282 15.0403H10.7194C10.6311 15.0403 10.5464 15.0754 10.4839 15.1378C10.4214 15.2003 10.3863 15.285 10.3863 15.3734C10.3863 15.4617 10.4214 15.5464 10.4839 15.6089C10.5464 15.6714 10.6311 15.7065 10.7194 15.7065H21.2804C21.3683 15.7052 21.4523 15.6698 21.5145 15.6076C21.5768 15.5454 21.6122 15.4613 21.6135 15.3734H21.6151ZM16.6265 6.62707C16.4939 6.61012 16.3604 6.60111 16.2267 6.60011C15.9563 6.58928 15.6896 6.66666 15.4669 6.82059C15.2775 6.96841 15.1339 7.16699 15.0529 7.39321C14.9614 7.63589 14.9162 7.89362 14.9197 8.153C14.9197 8.56699 15.0006 8.86044 15.1592 9.04761C15.2428 9.14085 15.3461 9.21429 15.4616 9.26259C15.5771 9.31088 15.702 9.33281 15.827 9.32678C15.9815 9.33745 16.1361 9.30731 16.2753 9.23938C16.4145 9.17145 16.5334 9.06812 16.6201 8.93975C16.7964 8.61617 16.8921 8.25491 16.8993 7.88651L16.9532 6.70004C16.8533 6.67942 16.747 6.66197 16.6265 6.62707Z" fill="#FBFDF8"/>
</svg>
