<svg width="96" height="85" viewBox="0 0 96 85" fill="none" xmlns="http://www.w3.org/2000/svg">
<path d="M0 0H95.8395V79C95.8395 82.3137 93.1532 85 89.8395 85H6.00001C2.6863 85 0 82.3137 0 79V0Z" fill="#006D3C"/>
<g clip-path="url(#clip0_370_1928)">
<path d="M49.1008 51.2781C54.1734 51.2781 58.2856 47.1231 58.2856 41.9976C58.2856 36.8721 54.1734 32.717 49.1008 32.717C44.0282 32.717 39.916 36.8721 39.916 41.9976C39.916 47.1231 44.0282 51.2781 49.1008 51.2781Z" stroke="white" stroke-width="5" stroke-miterlimit="10"/>
<path d="M53.9144 41.6663C53.6685 41.7988 53.6849 41.8761 53.2259 42.2792C53.0586 42.4425 52.8756 42.5886 52.6796 42.7153C52.3247 42.9059 51.9166 42.9701 51.5212 42.8975C51.3136 42.8478 51.2262 42.7815 50.4831 42.2019C49.6252 41.5338 49.5269 41.451 49.3029 41.4069C48.8959 41.3447 48.4802 41.4287 48.1281 41.6443C47.8222 41.832 47.8604 41.9534 47.4014 42.3399C47.1656 42.5881 46.8756 42.7771 46.5545 42.892C46.1894 42.9818 45.8051 42.9469 45.4618 42.7926C45.2092 42.6556 44.9773 42.4827 44.7733 42.2792C44.3253 41.8927 44.3089 41.7933 44.0466 41.6443C43.6259 41.4069 43.4456 41.5338 43.2871 41.3848C43.2371 41.6616 43.2133 41.9426 43.2161 42.2239C43.1922 43.0123 43.3253 43.7975 43.6074 44.533C43.8895 45.2685 44.3148 45.9392 44.8583 46.5054C45.4018 47.0716 46.0523 47.5218 46.7712 47.8292C47.49 48.1366 48.2627 48.295 49.0433 48.295C49.824 48.295 50.5966 48.1366 51.3155 47.8292C52.0344 47.5218 52.6849 47.0716 53.2284 46.5054C53.7718 45.9392 54.1972 45.2685 54.4793 44.533C54.7614 43.7975 54.8945 43.0123 54.8706 42.2239C54.8709 41.9301 54.849 41.6366 54.805 41.3461L54.6192 41.4069C54.2204 41.5449 54.0291 41.6111 53.9144 41.6663Z" fill="white"/>
<path d="M42.8772 52.7742C43.695 52.7742 44.3579 52.1044 44.3579 51.2781C44.3579 50.4518 43.695 49.7819 42.8772 49.7819C42.0594 49.7819 41.3965 50.4518 41.3965 51.2781C41.3965 52.1044 42.0594 52.7742 42.8772 52.7742Z" fill="white"/>
<path d="M55.3899 52.7742C56.2077 52.7742 56.8706 52.1044 56.8706 51.2781C56.8706 50.4518 56.2077 49.7819 55.3899 49.7819C54.5721 49.7819 53.9092 50.4518 53.9092 51.2781C53.9092 52.1044 54.5721 52.7742 55.3899 52.7742Z" fill="white"/>
<path d="M67.5089 46.9166C68.4505 46.9155 69.3765 47.1603 70.197 47.6273C71.0175 48.0942 71.7046 48.7675 72.1917 49.5819C72.6788 50.3962 72.9493 51.3239 72.977 52.275C73.0047 53.2261 72.7887 54.1683 72.3499 55.0102C69.5924 60.2126 65.1953 64.3361 59.8554 66.727C54.5156 69.1179 48.5388 69.6394 42.8724 68.2088C37.206 66.7782 32.1743 63.4774 28.5751 58.8296C24.9758 54.1818 23.015 48.4531 23.0035 42.5517C22.9919 36.6502 24.9303 30.9137 28.5113 26.2515C32.0923 21.5894 37.111 18.2685 42.7717 16.8153C48.4325 15.362 54.4114 15.8596 59.7605 18.2291C65.1096 20.5987 69.5229 24.7046 72.3007 29.8959C72.7599 30.7371 72.9939 31.6847 72.9797 32.6452C72.9654 33.6057 72.7034 34.5459 72.2194 35.3727C71.7355 36.1996 71.0464 36.8845 70.2203 37.3599C69.3942 37.8353 68.4596 38.0846 67.5089 38.0833V38.0833C66.5345 38.0917 65.5762 37.8327 64.7361 37.334C63.8961 36.8352 63.2058 36.1153 62.7389 35.2511C61.1405 32.2059 58.5806 29.7879 55.4661 28.3814C52.3516 26.9748 48.8612 26.6604 45.5496 27.4881C42.238 28.3158 39.2952 30.2382 37.1889 32.9496C35.0825 35.6611 33.9335 39.0061 33.9245 42.4531C33.9154 45.9001 35.0468 49.2512 37.1389 51.974C39.2309 54.6967 42.1636 56.6348 45.4708 57.4803C48.778 58.3257 52.27 58.0301 55.3919 56.6402C58.5137 55.2504 61.0862 52.8461 62.7006 49.8096C63.1695 48.9342 63.864 48.2032 64.7104 47.6939C65.5568 47.1847 66.5237 46.9161 67.5089 46.9166V46.9166Z" fill="white"/>
</g>
<defs>
<clipPath id="clip0_370_1928">
<rect width="50" height="53" fill="white" transform="translate(23 16)"/>
</clipPath>
</defs>
</svg>
