<svg width="34" height="34" viewBox="0 0 34 34" fill="none" xmlns="http://www.w3.org/2000/svg">
<path d="M20.4717 23.5444L17.8505 19.0111C17.652 18.6746 17.3326 18.4265 16.9575 18.3174C16.574 18.2176 16.1666 18.2733 15.8241 18.4725L14.6312 19.1542V19.1696L14.5033 19.2394C14.2696 19.3776 14.0107 19.4679 13.7417 19.505C13.4728 19.542 13.1991 19.5252 12.9367 19.4554C12.6743 19.3856 12.4285 19.2642 12.2135 19.0984C11.9985 18.9326 11.8187 18.7256 11.6845 18.4896L8.20268 12.4667C8.06741 12.2315 7.9799 11.9719 7.94515 11.7028C7.91041 11.4337 7.92911 11.1603 8.0002 10.8985C8.07129 10.6366 8.19336 10.3913 8.35942 10.1767C8.52547 9.96212 8.73225 9.7824 8.9679 9.64787L9.10935 9.56265V9.57629L10.3023 8.88265C10.4702 8.78738 10.6172 8.65917 10.7343 8.50572C10.8515 8.35226 10.9364 8.17671 10.984 7.98962C11.0389 7.8036 11.0547 7.60823 11.0304 7.41581C11.006 7.2234 10.9421 7.03811 10.8426 6.87163L8.21632 2.3383C8.09753 2.1264 7.93734 1.94056 7.74528 1.79183C7.55321 1.6431 7.3332 1.53451 7.09832 1.47253C6.62898 1.34832 6.12955 1.41512 5.70935 1.6583L5.44008 1.81338C5.44008 1.81338 4.90153 2.16787 4.84529 2.19514C4.15166 2.66381 2.33832 3.90962 1.94805 4.25048C1.62287 4.5278 1.35336 4.8644 1.15386 5.24235C0.873769 5.72374 0.725078 6.27026 0.722686 6.8272C0.720293 7.38413 0.864282 7.93192 1.14023 8.41569C1.1692 8.48556 4.61181 15.4986 5.90023 17.7499C7.21762 20.0183 11.6231 26.5763 11.6521 26.6121C11.9312 27.0982 12.3335 27.5021 12.8186 27.7831C13.3036 28.0641 13.8542 28.2121 14.4147 28.2124L15.0657 28.1987L15.4628 28.9077C15.5898 29.1239 15.7707 29.3033 15.9879 29.4285C16.2051 29.5537 16.4511 29.6203 16.7018 29.6218C16.8363 29.6241 16.9703 29.6051 17.0989 29.5656C17.2088 29.5328 17.3138 29.4852 17.4108 29.4241L17.6801 29.269C17.9082 29.1458 18.0954 28.9586 18.2186 28.7305C18.3654 28.4979 18.4455 28.2295 18.4503 27.9546C18.4551 27.6796 18.3844 27.4086 18.2459 27.1711L18.1044 26.9308C18.4317 26.7757 18.7146 26.6325 18.9123 26.549C18.9549 26.52 19.1952 26.4059 19.1952 26.4059L19.536 26.2082L19.7899 26.0531C20.0002 25.935 20.1849 25.7765 20.3335 25.5867C20.4821 25.3968 20.5916 25.1794 20.6557 24.947C20.7799 24.4734 20.7138 23.97 20.4717 23.5444V23.5444ZM6.06384 2.28035C6.19002 2.20284 6.33111 2.15277 6.47793 2.13339C6.62474 2.11401 6.77399 2.12576 6.91597 2.16787C7.06185 2.20201 7.19901 2.26617 7.31873 2.35625C7.43845 2.44633 7.53809 2.56036 7.6113 2.69108L10.2256 7.22441C10.2754 7.31175 10.3072 7.40814 10.3192 7.50794C10.3312 7.60773 10.3231 7.70892 10.2955 7.80556C10.2422 8.00121 10.1151 8.16858 9.94103 8.27253L9.37521 8.61338H9.37351L5.79456 2.4218L6.06384 2.28035ZM16.5041 28.8856C16.4146 28.8638 16.3307 28.8237 16.2576 28.7676C16.1845 28.7116 16.1239 28.6409 16.0798 28.56L15.7526 27.9925C16.0798 27.8664 16.7751 27.5392 17.4568 27.229L17.6272 27.5256C17.6835 27.6192 17.7205 27.7231 17.7359 27.8312C17.7514 27.9394 17.745 28.0495 17.7172 28.1551C17.6894 28.2608 17.6407 28.3598 17.5741 28.4463C17.5074 28.5328 17.4241 28.6051 17.329 28.6589L17.0597 28.8157C16.9773 28.866 16.8852 28.8983 16.7894 28.9103C16.6937 28.9223 16.5964 28.9139 16.5041 28.8856V28.8856ZM15.427 27.3517C15.1088 27.4631 14.7719 27.5112 14.4352 27.4932L14.0398 27.4795C13.6673 27.4194 13.3128 27.2776 13.0017 27.0643C12.6905 26.8509 12.4304 26.5714 12.2401 26.2457C12.1975 26.1741 7.809 19.6297 6.50183 17.392C5.22705 15.168 1.79978 8.1805 1.75717 8.07483C1.53987 7.69231 1.42677 7.25946 1.42916 6.81953C1.43156 6.3796 1.54936 5.94801 1.77081 5.56787C1.93845 5.27459 2.15387 5.01136 2.4082 4.78902C2.7269 4.51975 4.23517 3.47163 5.19978 2.80526L8.74123 8.95253L8.61341 9.02411C7.97444 9.39218 7.50778 9.99892 7.31603 10.711C7.12428 11.423 7.22313 12.182 7.59085 12.8212L11.0778 18.8424C11.4455 19.478 12.0497 19.9423 12.7586 20.1339C13.4675 20.3255 14.2234 20.2288 14.8612 19.8649L14.9976 19.7695L18.539 25.9184C17.4824 26.4348 15.8241 27.2 15.427 27.3551V27.3517ZM19.9604 24.7595C19.9242 24.9028 19.8592 25.0372 19.7692 25.1545C19.6792 25.2717 19.5662 25.3693 19.4372 25.4412L19.1815 25.598L15.6111 19.4286L16.1786 19.0878C16.3573 18.9859 16.5688 18.9585 16.7675 19.0114C16.9662 19.0644 17.1361 19.1934 17.2404 19.3707L19.8479 23.904C19.9247 24.0317 19.9743 24.174 19.9937 24.3218C20.013 24.4695 20.0017 24.6197 19.9604 24.763V24.7595ZM33.2911 8.48215C33.2888 10.495 32.5062 12.4286 31.1077 13.8763C29.7093 15.3241 27.8039 16.1732 25.7923 16.2451C22.6957 19.5633 21.7038 20.1103 21.3033 20.1103C21.2227 20.1086 21.1442 20.0844 21.0767 20.0404C20.6932 19.7984 20.9062 19.2616 20.9914 19.0622C21.7703 17.1074 22.1248 16.0167 22.2662 15.5497C20.6579 14.8091 19.3509 13.5413 18.5614 11.9564C17.772 10.3715 17.5476 8.56447 17.9254 6.83461C18.3032 5.10474 19.2605 3.5558 20.6388 2.44428C22.0171 1.33277 23.7337 0.725365 25.5043 0.722656C26.7405 0.729763 27.9579 1.02565 29.0594 1.58672L29.2298 1.67193V1.68556C29.2411 1.6906 29.2509 1.69839 29.2584 1.70822C29.2658 1.71805 29.2707 1.7296 29.2724 1.7418C29.312 1.79477 29.3319 1.85984 29.3287 1.92586C29.3274 2.01947 29.2896 2.10887 29.2234 2.17506C29.1572 2.24126 29.0678 2.27903 28.9742 2.28035C28.9213 2.27943 28.8688 2.26964 28.8191 2.25138C27.9711 1.77975 27.0351 1.48767 26.0694 1.3933C25.1036 1.29893 24.1288 1.40429 23.2055 1.70283C22.2822 2.00137 21.4303 2.48669 20.7026 3.12862C19.9749 3.77055 19.3872 4.55534 18.9758 5.43418C18.5644 6.31302 18.3383 7.2671 18.3115 8.23707C18.2847 9.20704 18.4578 10.1722 18.82 11.0724C19.1822 11.9726 19.7257 12.7886 20.4168 13.4698C21.1079 14.1509 21.9318 14.6826 22.8372 15.0316L22.8218 15.0453C22.8868 15.0609 22.9453 15.0966 22.9887 15.1474C23.0322 15.1983 23.0585 15.2615 23.0638 15.3282C23.0638 15.3708 23.0349 15.3997 23.0212 15.4424L23.0349 15.456C23.0212 15.4986 22.752 16.5177 21.7038 19.1679C22.4827 18.6157 24.0557 17.0699 25.3731 15.669H25.3936C25.4055 15.6434 25.4233 15.621 25.4455 15.6035C25.4677 15.5861 25.4937 15.5741 25.5214 15.5685V15.5548C27.3954 15.5521 29.192 14.8065 30.5171 13.4813C31.8423 12.1561 32.5879 10.3596 32.5906 8.48556C32.5874 7.3706 32.3175 6.27258 31.8033 5.28326V5.26792C31.7877 5.22695 31.7785 5.18385 31.776 5.1401C31.7755 5.0935 31.7844 5.04728 31.8021 5.00416C31.8198 4.96104 31.8459 4.92189 31.8789 4.88901C31.9119 4.85614 31.9512 4.83021 31.9944 4.81274C32.0376 4.79528 32.0839 4.78663 32.1305 4.78732C32.164 4.78523 32.1976 4.78987 32.2293 4.80095C32.2794 4.81516 32.3256 4.84026 32.3648 4.87443C32.404 4.90861 32.4351 4.95103 32.456 4.99865C33.0078 6.07798 33.2941 7.27338 33.2911 8.48556V8.48215Z" fill="#006D3C"/>
<path d="M18.5442 25.9251C17.4825 26.4364 15.8174 27.1999 15.4271 27.355C15.1089 27.4664 14.7719 27.5144 14.4352 27.4964L14.0398 27.4828C13.6671 27.4223 13.3124 27.2799 13.0012 27.066C12.69 26.8521 12.4301 26.5718 12.2402 26.2455C12.1975 26.1739 7.80907 19.6295 6.50191 17.3918C5.22712 15.1678 1.79985 8.18032 1.75724 8.07465C1.53995 7.69213 1.42684 7.25928 1.42924 6.81935C1.43163 6.37942 1.54943 5.94782 1.77088 5.56768C1.93852 5.27441 2.15395 5.01117 2.40827 4.78884C2.72697 4.51956 4.23524 3.47144 5.19985 2.80508L8.7413 8.95235L8.61348 9.02393C7.97451 9.39199 7.50785 9.99874 7.3161 10.7108C7.12435 11.4228 7.2232 12.1818 7.59093 12.821L11.0778 18.8422C11.4455 19.4778 12.0498 19.9421 12.7587 20.1337C13.4676 20.3253 14.2235 20.2286 14.8613 19.8647L14.9976 19.7693L18.5442 25.9251ZM17.6239 27.5254L17.4535 27.2288C16.7718 27.539 16.0799 27.8662 15.7492 27.9924L16.0764 28.5599C16.1206 28.6407 16.1812 28.7114 16.2542 28.7674C16.3273 28.8235 16.4113 28.8637 16.5008 28.8854C16.5926 28.9132 16.6892 28.9214 16.7843 28.9094C16.8795 28.8973 16.971 28.8653 17.053 28.8155L17.3223 28.6587C17.4176 28.6052 17.5013 28.5331 17.5683 28.4467C17.6353 28.3604 17.6843 28.2614 17.7124 28.1558C17.7405 28.0501 17.7472 27.9399 17.732 27.8316C17.7168 27.7233 17.68 27.6192 17.6239 27.5254V27.5254ZM32.5839 8.48538C32.5812 10.3594 31.8355 12.156 30.5104 13.4811C29.1852 14.8063 27.3887 15.5519 25.5146 15.5547V15.5683C25.487 15.5739 25.461 15.5859 25.4388 15.6034C25.4166 15.6208 25.3988 15.6433 25.3868 15.6688H25.3732C24.0558 17.0697 22.4759 18.6155 21.7039 19.1677C22.752 16.5176 23.0213 15.4984 23.0349 15.4558L23.0213 15.4422C23.0349 15.3996 23.0639 15.3706 23.0639 15.328C23.0586 15.2613 23.0323 15.1981 22.9888 15.1473C22.9453 15.0965 22.8869 15.0607 22.8219 15.0451L22.8372 15.0314C21.9499 14.6688 21.1455 14.1296 20.4729 13.4465C19.8003 12.7634 19.2736 11.9508 18.9248 11.0579C18.576 10.165 18.4123 9.21048 18.4438 8.25238C18.4752 7.29428 18.7011 6.35257 19.1077 5.48445C19.5143 4.61633 20.0931 3.83993 20.809 3.20241C21.5249 2.56489 22.3629 2.07955 23.2722 1.77588C24.1814 1.4722 25.1429 1.35654 26.0982 1.4359C27.0535 1.51527 27.9828 1.78801 28.8294 2.23756C30.102 2.92748 31.1381 3.98374 31.8034 5.26944V5.28307C32.3152 6.27299 32.5828 7.37097 32.5839 8.48538V8.48538ZM25.8828 5.19956C25.8841 5.323 25.9337 5.441 26.021 5.52829C26.1083 5.61558 26.2263 5.6652 26.3497 5.66653H29.2828C29.4062 5.6652 29.5242 5.61558 29.6115 5.52829C29.6988 5.441 29.7484 5.323 29.7497 5.19956V4.71726C29.7488 4.59369 29.6993 4.47543 29.612 4.38805C29.5246 4.30067 29.4063 4.25118 29.2828 4.25029H26.3497C26.2262 4.25118 26.1079 4.30067 26.0205 4.38805C25.9331 4.47543 25.8836 4.59369 25.8828 4.71726V5.19956ZM21.2506 5.19956C21.2515 5.32314 21.301 5.44139 21.3883 5.52877C21.4757 5.61615 21.594 5.66564 21.7175 5.66653H24.6506C24.774 5.6652 24.892 5.61558 24.9793 5.52829C25.0666 5.441 25.1162 5.323 25.1175 5.19956V4.71726C25.1167 4.59369 25.0672 4.47543 24.9798 4.38805C24.8924 4.30067 24.7741 4.25118 24.6506 4.25029H21.7175C21.594 4.25118 21.4757 4.30067 21.3883 4.38805C21.301 4.47543 21.2515 4.59369 21.2506 4.71726V5.19956ZM31.0961 10.1999L30.3735 7.09811C30.3256 6.89328 30.2101 6.71056 30.0456 6.57945C29.8811 6.44834 29.6772 6.37649 29.4668 6.3755H21.4738C21.2629 6.37434 21.058 6.44539 20.893 6.57684C20.7281 6.7083 20.6131 6.89225 20.5672 7.09811L19.8292 10.1999C19.8301 10.5002 19.9498 10.7879 20.1622 11.0003C20.3745 11.2126 20.6623 11.3323 20.9626 11.3332H29.973C30.1213 11.333 30.2681 11.3034 30.4049 11.2463C30.5417 11.1891 30.6659 11.1055 30.7703 11.0001C30.8746 10.8948 30.9572 10.7699 31.0131 10.6325C31.069 10.4952 31.0972 10.3482 31.0961 10.1999V10.1999Z" fill="#FBFDF8"/>
<path d="M30.9684 25.2881C30.9688 25.3161 30.9636 25.3439 30.9531 25.3699C30.9425 25.3959 30.9268 25.4194 30.9069 25.4392C30.887 25.4589 30.8633 25.4744 30.8373 25.4848C30.8112 25.4951 30.7834 25.5001 30.7553 25.4994C29.7753 25.5046 28.8244 25.8335 28.0507 26.435C27.4269 26.9463 27.2292 27.628 26.9736 28.4802C26.6753 29.5283 26.3362 30.7196 25.1313 31.7677C24.3778 32.4688 23.3842 32.8543 22.355 32.8448C20.8212 32.8448 19.4578 32.0506 18.9465 31.7114C18.0535 31.1149 17.3735 30.0242 17.1042 29.5572C17.2141 29.5245 17.319 29.4769 17.4161 29.4158L17.6854 29.2607C17.9135 29.1375 18.1007 28.9503 18.2239 28.7222L18.2665 28.7068C18.4506 29.0749 19.0743 30.0958 19.7254 30.5202C20.5332 31.0587 22.5732 32.1494 24.2024 30.7042C25.0938 29.9254 25.3494 29.034 25.6187 28.0984C25.9016 27.1202 26.1998 26.1146 27.1628 25.3358C28.4512 24.274 29.939 24.0883 30.7604 24.0746C30.7886 24.0742 30.8165 24.0794 30.8425 24.0899C30.8686 24.1005 30.8922 24.1161 30.9121 24.136C30.932 24.1559 30.9477 24.1796 30.9582 24.2056C30.9687 24.2317 30.9739 24.2596 30.9735 24.2877C30.9753 24.3168 30.9712 24.3459 30.9614 24.3734C30.9515 24.4008 30.9361 24.4259 30.9161 24.4472C30.8961 24.4684 30.872 24.4854 30.8452 24.4969C30.8185 24.5085 30.7896 24.5144 30.7604 24.5143V25.0529C30.79 25.0534 30.819 25.0601 30.8458 25.0725C30.8726 25.0849 30.8965 25.1027 30.9161 25.1248C30.9356 25.1469 30.9504 25.1728 30.9594 25.2009C30.9684 25.229 30.9714 25.2587 30.9684 25.2881V25.2881ZM19.8481 23.8991L17.2405 19.3658C17.1354 19.1894 16.9652 19.0614 16.7666 19.0094C16.5679 18.9575 16.3568 18.9857 16.1788 19.088L15.6113 19.4288L19.1902 25.6068L19.4459 25.45C19.705 25.2997 19.8939 25.0526 19.9709 24.763C20.048 24.4734 20.0068 24.1651 19.8566 23.9059L19.8481 23.8991ZM10.3042 7.80576C10.2509 8.0014 10.1238 8.16878 9.94972 8.27273L9.3839 8.61358H9.37368L5.79473 2.422L6.064 2.28054C6.19019 2.20304 6.33128 2.15296 6.47809 2.13358C6.62491 2.1142 6.77416 2.12595 6.91613 2.16806C7.06201 2.20221 7.19918 2.26637 7.31889 2.35645C7.43861 2.44653 7.53825 2.56056 7.61147 2.69127L10.2258 7.22461C10.2761 7.31171 10.3085 7.40799 10.3211 7.50779C10.3337 7.60759 10.3262 7.70889 10.2991 7.80576H10.3042ZM29.7498 4.71764V5.19994C29.7485 5.32338 29.6989 5.44138 29.6116 5.52867C29.5243 5.61596 29.4063 5.66558 29.2829 5.66691H26.3498C26.2264 5.66558 26.1084 5.61596 26.0211 5.52867C25.9338 5.44138 25.8842 5.32338 25.8829 5.19994V4.71764C25.8837 4.59407 25.9332 4.47581 26.0206 4.38843C26.108 4.30105 26.2262 4.25156 26.3498 4.25067H29.2829C29.4064 4.25156 29.5247 4.30105 29.6121 4.38843C29.6994 4.47581 29.7489 4.59407 29.7498 4.71764V4.71764ZM24.6507 4.25067H21.7176C21.5941 4.25156 21.4758 4.30105 21.3884 4.38843C21.301 4.47581 21.2516 4.59407 21.2507 4.71764V5.19994C21.2516 5.32352 21.301 5.44177 21.3884 5.52915C21.4758 5.61654 21.5941 5.66602 21.7176 5.66691H24.6507C24.7741 5.66558 24.8921 5.61596 24.9794 5.52867C25.0667 5.44138 25.1163 5.32338 25.1176 5.19994V4.71764C25.1167 4.59407 25.0673 4.47581 24.9799 4.38843C24.8925 4.30105 24.7742 4.25156 24.6507 4.25067V4.25067ZM31.0962 10.2002C31.0973 10.3482 31.0692 10.495 31.0135 10.6321C30.9578 10.7693 30.8756 10.894 30.7716 10.9993C30.6675 11.1046 30.5438 11.1883 30.4073 11.2457C30.2709 11.303 30.1245 11.3329 29.9765 11.3336H20.9626C20.6623 11.3327 20.3746 11.213 20.1623 11.0006C19.9499 10.7883 19.8302 10.5005 19.8293 10.2002L20.5673 7.09849C20.6132 6.89263 20.7282 6.70868 20.8931 6.57723C21.058 6.44577 21.263 6.37472 21.4739 6.37588H29.4669C29.6773 6.37687 29.8812 6.44872 30.0457 6.57983C30.2102 6.71094 30.3257 6.89366 30.3736 7.09849L31.0962 10.2002ZM29.8248 9.60546C29.8235 9.54937 29.8006 9.49593 29.761 9.45626C29.7213 9.41659 29.6679 9.39373 29.6118 9.39243H21.4654C21.4096 9.39416 21.3566 9.41721 21.3173 9.45684C21.278 9.49646 21.2554 9.54966 21.2541 9.60546V9.74691C21.2554 9.80272 21.278 9.85591 21.3173 9.89554C21.3566 9.93517 21.4096 9.95822 21.4654 9.95995H29.6118C29.6679 9.95865 29.7213 9.93578 29.761 9.89611C29.8006 9.85644 29.8235 9.803 29.8248 9.74691V9.60546ZM29.8248 8.01027C29.8235 7.95418 29.8006 7.90075 29.761 7.86107C29.7213 7.8214 29.6679 7.79854 29.6118 7.79724H21.4654C21.409 7.7981 21.3552 7.82077 21.3151 7.86049C21.2751 7.90021 21.252 7.95389 21.2507 8.01027V8.13639C21.2515 8.19249 21.274 8.24611 21.3133 8.2861C21.3527 8.32609 21.4059 8.34938 21.462 8.35112H29.6084C29.637 8.3509 29.6653 8.34504 29.6917 8.33387C29.7181 8.3227 29.742 8.30644 29.7621 8.28603C29.7822 8.26561 29.7981 8.24144 29.8089 8.21489C29.8196 8.18833 29.825 8.15992 29.8248 8.13127V8.01027ZM30.936 2.92987C30.8318 2.92987 30.7299 2.9608 30.6432 3.01874C30.5566 3.07668 30.4891 3.15903 30.4493 3.25535C30.4095 3.35168 30.3992 3.45765 30.4196 3.55985C30.4401 3.66205 30.4904 3.75588 30.5642 3.82946C30.638 3.90304 30.732 3.95306 30.8343 3.97319C30.9366 3.99332 31.0425 3.98264 31.1387 3.94252C31.2349 3.9024 31.317 3.83464 31.3747 3.74782C31.4323 3.66099 31.4629 3.55901 31.4626 3.45478C31.4633 3.38499 31.45 3.31576 31.4236 3.25114C31.3973 3.18653 31.3582 3.12783 31.3089 3.07847C31.2595 3.02912 31.2008 2.9901 31.1362 2.96371C31.0716 2.93732 31.0024 2.92407 30.9326 2.92476L30.936 2.92987ZM3.77859 8.69198C3.67372 8.69168 3.57114 8.7227 3.48402 8.78107C3.39689 8.83944 3.32917 8.92249 3.28954 9.01958C3.24991 9.11668 3.24017 9.22339 3.26157 9.32606C3.28297 9.42872 3.33454 9.52266 3.40966 9.59583C3.48479 9.669 3.58005 9.71808 3.68324 9.73677C3.78643 9.75547 3.89285 9.74292 3.98887 9.70075C4.08489 9.65858 4.16613 9.5887 4.22219 9.50007C4.27824 9.41143 4.30655 9.30808 4.3035 9.20325C4.29994 9.06642 4.24307 8.93638 4.14502 8.84087C4.04696 8.74536 3.91547 8.69193 3.77859 8.69198V8.69198ZM11.6352 23.0384C11.6692 23.0066 11.6966 22.9683 11.7157 22.9257C11.7348 22.8832 11.7452 22.8374 11.7465 22.7908C11.7478 22.7442 11.7398 22.6978 11.723 22.6543C11.7063 22.6108 11.6811 22.5711 11.6489 22.5374C9.76736 20.5434 5.09428 11.1649 5.04656 11.0779C5.02585 11.0364 4.99718 10.9994 4.96216 10.969C4.92715 10.9385 4.88648 10.9153 4.84249 10.9006C4.79849 10.8859 4.75203 10.8799 4.70575 10.8832C4.65947 10.8864 4.61429 10.8987 4.57277 10.9194C4.53126 10.9401 4.49422 10.9688 4.46379 11.0038C4.43336 11.0389 4.41012 11.0795 4.3954 11.1235C4.38068 11.1675 4.37477 11.214 4.37801 11.2602C4.38125 11.3065 4.39357 11.3517 4.41428 11.3932C4.60174 11.775 9.17939 20.9627 11.1342 23.0078C11.1668 23.0434 11.2066 23.0717 11.2509 23.0908C11.2953 23.1099 11.3432 23.1194 11.3915 23.1185C11.481 23.1205 11.5679 23.0889 11.6352 23.0299V23.0384Z" fill="#4F6354"/>
</svg>
