<svg width="16" height="12" viewBox="0 0 16 12" fill="none" xmlns="http://www.w3.org/2000/svg">
<path fill-rule="evenodd" clip-rule="evenodd" d="M11.1133 6.75293C12.0266 7.37293 12.6666 8.21293 12.6666 9.33293V11.3329H15.3333V9.33293C15.3333 7.8796 12.9533 7.0196 11.1133 6.75293Z" fill="#006D3C"/>
<path d="M5.99967 5.99984C7.47243 5.99984 8.66634 4.80593 8.66634 3.33317C8.66634 1.86041 7.47243 0.666504 5.99967 0.666504C4.52692 0.666504 3.33301 1.86041 3.33301 3.33317C3.33301 4.80593 4.52692 5.99984 5.99967 5.99984Z" fill="#006D3C"/>
<path fill-rule="evenodd" clip-rule="evenodd" d="M9.99995 5.99984C11.4733 5.99984 12.6666 4.8065 12.6666 3.33317C12.6666 1.85984 11.4733 0.666504 9.99995 0.666504C9.68661 0.666504 9.39328 0.73317 9.11328 0.826504C9.66661 1.51317 9.99995 2.3865 9.99995 3.33317C9.99995 4.27984 9.66661 5.15317 9.11328 5.83984C9.39328 5.93317 9.68661 5.99984 9.99995 5.99984Z" fill="#006D3C"/>
<path fill-rule="evenodd" clip-rule="evenodd" d="M5.99984 6.6665C4.21984 6.6665 0.666504 7.55984 0.666504 9.33317V11.3332H11.3332V9.33317C11.3332 7.55984 7.77984 6.6665 5.99984 6.6665Z" fill="#006D3C"/>
</svg>
